# xmcd
#
# Track frame offsets: 
#        182
#        11775
#        23017
#        36577
#        47270
#        60015
#        73122
#        87587
#        98847
#        110920
#        122510
#        132942
#        144775
#        157275
#        169157
#        179795
#        189807
#        199512
#        214367
#        228780
#        240095
#        253450
#        265370
#        277650
#        288632
#        302475
#
# Disc length: 4260 seconds
#
# Revision: 0
# Processed by: cddbd v1.5.2PL0 Copyright (c) Steve Scherf et al.
# Submitted via: ExactAudioCopyFreeDBPlugin 1.0
#
DISCID=7310a21a
DTITLE=Various Artist - Rites of Rhythm and Blues:  Rhythm and Blues Foun
DTITLE=dation Pioneer Awards
DYEAR=1995
DGENRE=Rhythm and Blues
TTITLE0=Mabel Scott - Elevator Boogie
TTITLE1=The Marvelettes - Please Mr. Postman
TTITLE2=Junior Walker and The All-Stars - Shotgun
TTITLE3=Fats Domino - Blueberry Hill
TTITLE4=Illinois Jacquet - Flying Home, Part 1
TTITLE5=Booker T. and The M.G.'s - Green Onions
TTITLE6=The Moonglows - Sincerely
TTITLE7=Lloyd Price - Lawdy Miss Clawdy
TTITLE8=Arthur Prysock - I Wonder Where Our Love Has Gone
TTITLE9=Justine "Baby" Washington - I Can't Wait Until I See My Baby
TTITLE10=Mabel Scott - Boogie Woogie Santa Claus
TTITLE11=Lloyd Price - Personality
TTITLE12=The Blossoms - Good Good Lovin' (ft Darlene Love)
TTITLE13=Inez and Charlie Foxx - Mockingbird
TTITLE14=The Sweet Inspirations - Gotta Find (A Brand New Lover), Part
TTITLE14=1 (ft Cissy Houston)
TTITLE15=The Marvelettes - Beachwood 4-5789
TTITLE16=Fats Domino - So Long
TTITLE17=Booker T. and The M.G.'s - Time is Tight
TTITLE18=Illinois Jackquet - Black Velvet
TTITLE19=Junior Walker and The All-Stars - What Does it Take (To Win You
TTITLE19=r Love)
TTITLE20=Arthur Prysock - Blue Velvet
TTITLE21=Inez and Charlie Foxx - Ask Me
TTITLE22=Justine "Baby" Washington - That's How Heartaches Are Made
TTITLE23=The Blossoms - That's When the Tears Start (ft Darlene Love)
TTITLE24=The Moonglows - Most of All
TTITLE25=Cissy Houston - Midnight Train to Georgia
EXTD=
EXTT0=
EXTT1=
EXTT2=
EXTT3=
EXTT4=
EXTT5=
EXTT6=
EXTT7=
EXTT8=
EXTT9=
EXTT10=
EXTT11=
EXTT12=
EXTT13=
EXTT14=
EXTT15=
EXTT16=
EXTT17=
EXTT18=
EXTT19=
EXTT20=
EXTT21=
EXTT22=
EXTT23=
EXTT24=
EXTT25=
PLAYORDER=
